name rise49.8558peak67.6521fall70.3087.mot
datacolumns 19
datarows 17
range 17.44993600000000 17.47661200000000
endheader
time	ground_force1_vx	ground_force1_vy	ground_force1_vz	ground_force1_px	ground_force1_py	ground_force1_pz	ground_force2_vx	ground_force2_vy	ground_force2_vz	ground_force2_px	ground_force2_py	ground_force2_pz	ground_torque1_x	ground_torque1_y	ground_torque1_z	ground_torque2_x	ground_torque2_y	ground_torque2_z	
17.44993600000000	-6.77307700000000	42.10884700000000	-9.80985000000000	0.36755100000000	0.00000000000000	0.09370500000000	-51.65356900000000	785.17356800000005	-54.62168500000000	0.15934600000000	0.00000000000000	-0.08884800000000	0.00000000000000	-7.83142700000000	0.00000000000000	0.00000000000000	-24.01109600000000	0.00000000000000	
17.45161300000000	-7.38377000000000	49.15332800000000	-11.02529300000000	0.37127200000000	0.00000000000000	0.09469400000000	-52.03048100000000	782.98176599999999	-54.33638600000000	0.15845900000000	0.00000000000000	-0.08877200000000	0.00000000000000	-8.87370900000000	0.00000000000000	0.00000000000000	-23.88954000000000	0.00000000000000	
17.45326600000000	-7.85393600000000	56.23574400000000	-12.12792400000000	0.37475600000000	0.00000000000000	0.09560600000000	-52.41816900000000	780.69925300000000	-54.03590400000000	0.15757100000000	0.00000000000000	-0.08869200000000	0.00000000000000	-9.84228600000000	0.00000000000000	0.00000000000000	-23.76758600000000	0.00000000000000	
17.45493600000000	-8.16485500000000	63.26160200000000	-13.09191100000000	0.37803600000000	0.00000000000000	0.09645000000000	-52.81692500000000	778.32486200000005	-53.72008200000000	0.15668200000000	0.00000000000000	-0.08860900000000	0.00000000000000	-10.71571300000000	0.00000000000000	0.00000000000000	-23.64536400000000	0.00000000000000	
17.45660700000000	-8.30564500000000	70.16107700000001	-13.90022500000000	0.38114100000000	0.00000000000000	0.09723600000000	-53.22698500000000	775.85738700000002	-53.38876100000000	0.15579300000000	0.00000000000000	-0.08852300000000	0.00000000000000	-11.47926500000000	0.00000000000000	0.00000000000000	-23.52299200000000	0.00000000000000	
17.45826600000000	-8.27310700000000	76.89098700000000	-14.54474300000000	0.38409100000000	0.00000000000000	0.09797000000000	-53.64852500000000	773.29557999999997	-53.04177800000000	0.15490600000000	0.00000000000000	-0.08843400000000	0.00000000000000	-12.12515600000000	0.00000000000000	0.00000000000000	-23.40057700000000	0.00000000000000	
17.45993500000000	-8.07097100000000	83.43424600000000	-15.02560600000000	0.38690600000000	0.00000000000000	0.09865800000000	-54.08165600000000	770.63815499999998	-52.67896600000000	0.15401900000000	0.00000000000000	-0.08834100000000	0.00000000000000	-12.65214300000000	0.00000000000000	0.00000000000000	-23.27821500000000	0.00000000000000	
17.46160700000000	-7.70870200000000	89.79725600000000	-15.35001400000000	0.38960100000000	0.00000000000000	0.09930600000000	-54.52642400000000	767.88378699999998	-52.30015900000000	0.15313500000000	0.00000000000000	-0.08824400000000	0.00000000000000	-13.06466500000000	0.00000000000000	0.00000000000000	-23.15598900000000	0.00000000000000	
17.46326500000000	-7.20004200000000	96.00581000000000	-15.53064500000000	0.39218800000000	0.00000000000000	0.09991700000000	-54.98280500000000	765.03111300000000	-51.90519200000000	0.15225400000000	0.00000000000000	-0.08814300000000	0.00000000000000	-13.37166400000000	0.00000000000000	0.00000000000000	-23.03397200000000	0.00000000000000	
17.46493100000000	-6.56145500000000	102.10011600000000	-15.58390200000000	0.39467800000000	0.00000000000000	0.10049500000000	-55.45070500000000	762.07873600000005	-51.49389900000000	0.15137600000000	0.00000000000000	-0.08803800000000	0.00000000000000	-13.58523700000000	0.00000000000000	0.00000000000000	-22.91222100000000	0.00000000000000	
17.46660900000000	-5.81062400000000	108.12948299999999	-15.52816000000000	0.39708100000000	0.00000000000000	0.10104400000000	-55.92995700000000	759.02522599999998	-51.06612200000000	0.15050300000000	0.00000000000000	-0.08793000000000	0.00000000000000	-13.71925500000000	0.00000000000000	0.00000000000000	-22.79078000000000	0.00000000000000	
17.46826500000000	-4.96509600000000	114.14718200000000	-15.38215600000000	0.39940300000000	0.00000000000000	0.10156500000000	-56.42031900000000	755.86912199999995	-50.62170500000000	0.14963500000000	0.00000000000000	-0.08781700000000	0.00000000000000	-13.78808600000000	0.00000000000000	0.00000000000000	-22.66968300000000	0.00000000000000	
17.46993900000000	-4.04118800000000	120.20585600000000	-15.16363000000000	0.40165100000000	0.00000000000000	0.10206200000000	-56.92147100000000	752.60893599999997	-50.16050200000000	0.14877200000000	0.00000000000000	-0.08770000000000	0.00000000000000	-13.80548100000000	0.00000000000000	0.00000000000000	-22.54894600000000	0.00000000000000	
17.47161000000000	-3.05315800000000	126.35372900000000	-14.88826600000000	0.40383000000000	0.00000000000000	0.10253600000000	-57.43301800000000	749.24315600000000	-49.68237400000000	0.14791700000000	0.00000000000000	-0.08757900000000	0.00000000000000	-13.78370300000000	0.00000000000000	0.00000000000000	-22.42857200000000	0.00000000000000	
17.47326700000000	-2.01269500000000	132.63179700000001	-14.56898700000000	0.40594500000000	0.00000000000000	0.10299000000000	-57.95448200000000	745.77025100000003	-49.18719500000000	0.14706800000000	0.00000000000000	-0.08745300000000	0.00000000000000	-13.73291800000000	0.00000000000000	0.00000000000000	-22.30855200000000	0.00000000000000	
17.47493700000000	-0.92868000000000	139.07200900000001	-14.21557400000000	0.40800000000000	0.00000000000000	0.10342300000000	-58.48530500000000	742.18867299999999	-48.67485100000000	0.14622800000000	0.00000000000000	-0.08732300000000	0.00000000000000	-13.66085000000000	0.00000000000000	0.00000000000000	-22.18886100000000	0.00000000000000	
17.47661200000000	0.19278600000000	145.69642099999999	-13.83458800000000	0.40999800000000	0.00000000000000	0.10383900000000	-59.02484800000000	738.49686199999996	-48.14524300000000	0.14539700000000	0.00000000000000	-0.08718800000000	0.00000000000000	-13.57267500000000	0.00000000000000	0.00000000000000	-22.06945700000000	0.00000000000000	
